<svg width="41" height="40" viewBox="0 0 41 40" fill="none" xmlns="http://www.w3.org/2000/svg">
<path d="M5.75 30.7216C5.75 27.3845 8.17475 24.5421 11.4701 24.0162L11.7669 23.9689C14.4056 23.5477 17.0944 23.5477 19.7331 23.9689L20.0299 24.0162C23.3252 24.5421 25.75 27.3845 25.75 30.7216C25.75 32.1639 24.5807 33.3332 23.1384 33.3332H8.36161C6.91926 33.3332 5.75 32.1639 5.75 30.7216Z" stroke="white" stroke-width="2.5"/>
<path d="M21.5833 12.4998C21.5833 15.7215 18.9717 18.3332 15.75 18.3332C12.5283 18.3332 9.91667 15.7215 9.91667 12.4998C9.91667 9.27818 12.5283 6.6665 15.75 6.6665C18.9717 6.6665 21.5833 9.27818 21.5833 12.4998Z" stroke="white" stroke-width="2.5"/>
<path d="M25.75 18.3332C28.9717 18.3332 31.5833 15.7215 31.5833 12.4998C31.5833 9.27818 28.9717 6.6665 25.75 6.6665M29.7331 33.3332H33.1384C34.5807 33.3332 35.75 32.1639 35.75 30.7216C35.75 27.3845 33.3252 24.5421 30.0299 24.0162V24.0162C29.8324 23.9847 29.6322 23.9689 29.4322 23.9689C28.8992 23.9689 28.7337 23.9689 27.8186 23.9689" stroke="white" stroke-width="2.5" stroke-linecap="round"/>
</svg>
